/* XPM */
static char *result[] = {
/* columns rows colors chars-per-pixel */
"32 32 47 1 ",
"  c #050404",
". c #070505",
"X c #080606",
"o c #0B0808",
"O c #0C0908",
"+ c #150F0B",
"@ c #160F0C",
"# c #1A1513",
"$ c #1F1511",
"% c #1B1615",
"& c #231915",
"* c #261B1A",
"= c #261B1B",
"- c #2D2020",
"; c #2E2623",
": c #2F2724",
"> c #302323",
", c #372726",
"< c #302824",
"1 c #312925",
"2 c #3A2A27",
"3 c #3D2C29",
"4 c #43312D",
"5 c #4B3631",
"6 c #4E3C38",
"7 c #58413A",
"8 c #624942",
"9 c #724F40",
"0 c #6F554C",
"q c #7B5544",
"w c #825A47",
"e c #865D4B",
"r c #906450",
"t c #956A56",
"y c #9C6C55",
"u c #A2725C",
"i c #8E756C",
"p c #987C70",
"a c #A97861",
"s c #AC7C65",
"d c #9C8175",
"f c #B1816B",
"g c #A58678",
"h c #AD8C7D",
"j c #B39385",
"k c #BF9B8B",
"l c None",
/* pixels */
"llllllllllllllllllllllllllllllll",
"llllllllllllllllllllllllllllllll",
"llllllllllllllllllllllllllllllll",
"llllllllllllllllllllllllllllllll",
"llllllllllll#%%%#lllllllllllllll",
"llllllllll#:djjgd:#lllllllllllll",
"llllllllX;ggsfj0agd:%#llllllllll",
"lllllllX4pj0uyauh0uhhd:#llllllll",
"llllllX4i0uth0hsayuasshd#lllllll",
"llll#&4p0hj0tufksyayuufh:lllllll",
"lll#dhyauusg0hjkj0d0rausd1llllll",
"lll:jfauh9yfd646hh0i0gsysp#lllll",
"ll<gksg9utag6-->5rr7i8p8rt&lllll",
"l#dsar6ed0g6-----*e33>6i8re#llll",
"l%har4>35th*=->>-*q3,436i8ywXlll",
"l@tr4>225th>*O->-95>4ww45ryr$Xll",
"l@q4>,26p8rq*O$*95>2934w4w7rw&ll",
"lX>>,,6gue75qwwq4>>23O$q34q6rw#l",
"l.=->5gt56q53333>>,>44,4>>436q+l",
"lX*>25e*O>5q,-222>46dd6>,>22>>Xl",
"llX=232*OOO,>>2226dd66i5>>>>-oll",
"lllX=,>>-=-22>>>4p74>>6w3,>-*Xll",
"llllX=,22>>2222-3r4->>-q3>-=Xlll",
"lllllo-23>->>22>49$--$q5>-=Xllll",
"lllllX*-22>,>>,29-OOO$q3=*Xlllll",
"llllllXo=-->,>>>59$O$95=oXllllll",
"llllllllX o=->>,,5weq3*Xllllllll",
"lllllllllllX o=->-32>oXlllllllll",
"llllllllllllllX ... Xlllllllllll",
"llllllllllllllllllllllllllllllll",
"llllllllllllllllllllllllllllllll",
"llllllllllllllllllllllllllllllll"
};
