/* XPM */
static char *db8ba44599a74b55cd249fd816cc9674my9cQW8LR3o5An5d[] = {
/* columns rows colors chars-per-pixel */
"32 32 8 1 ",
"  c None",
". c #5D275D",
"X c #B13E53",
"o c #EF7D57",
"O c #3B5DC9",
"+ c #41A6F6",
"@ c #73EFF7",
"# c #F4F4F4",
/* pixels */
"              ####              ",
"             #..XX#             ",
"             #X.Xo#             ",
"             #X.Xo#             ",
"             #..XX#             ",
"            #...XXX#            ",
"            #X.O+Xo#            ",
"            #XO+@+o#            ",
"            #X++@@o#            ",
"           #.X+O+@oX#           ",
"           #XXO.X+oo#           ",
"           #XX..XXoo#           ",
"           #XX..XXoo#           ",
"           #.X..XXoX#           ",
"          ##.X..XXoX##          ",
"         #XX#.X.XoX#oo#         ",
"#        #..#.X.XoX#XX#        #",
"##       #..#.X.XoX#XX#       ##",
"#.########XX#.X.XoX#oo########X#",
"#.XXXXXX.#.X##..XX##oX#XooooooX#",
"#.X...XX.#X...####XXXo#XooXXXoX#",
"#.X..XXX.#XX#...XXX#oo#XoooXXoX#",
"#.X.XXXX.#.X#...XXX#oX#XooooXoX#",
"#.XXXXX..#X.....XXXXXo#XXoooooX#",
"###XXXX..#XX##..XX##oo#XXoooo###",
"#  ###X..#XX# #### #oo#XXo###  #",
"      ####X.#      #Xo####      ",
"         #X.#      #Xo#         ",
"         #XX#      #oo#         ",
"         #X#        #o#         ",
"         ##          ##         ",
"         #            #         "
};
