/* XPM */
static char *_6378dbda9764104e1ba8811417361a3oXpdu0a9UwEiIQd2[] = {
/* columns rows colors chars-per-pixel */
"32 32 5 1 ",
"  c None",
". c #42252F",
"X c #C76904",
"o c #F0DD11",
"O c white",
/* pixels */
"                                ",
"                                ",
"                                ",
"                                ",
"                                ",
"                                ",
"               ..               ",
"              .oo.              ",
"              .oo.              ",
"             .oooo.             ",
"             .oooo.             ",
"            .oooooo.            ",
"      .......oooooo.......      ",
"      .oooooooooooooooooo.      ",
"      .OooooooooooooooooO.      ",
"      .XOooooooooooooooOX.      ",
"      .XXOooooooooooooOXX.      ",
"       .XXOooooooooooOXX.       ",
"        .XXooooooooooXX.        ",
"         .XooooooooooX.         ",
"          .oooooooooo.          ",
"         .oooooOOooooo.         ",
"         .oooOOXXOOooo.         ",
"        .ooOOXXXXXXOOoo.        ",
"        .OOXXXX..XXXXOO.        ",
"        .XXXX..  ..XXXX.        ",
"        .XX..      ..XX.        ",
"        ...          ...        ",
"                                ",
"                                ",
"                                ",
"                                "
};
